<?xml version="1.0" encoding="UTF-8"?><svg id="a" xmlns="http://www.w3.org/2000/svg" viewBox="0 0 209.68 526.83"><defs><style>.b{fill:#0d1117;}.c{fill:#4870ff;}</style></defs><path class="b" d="M34.53,420.76l84.29-46.68,84.79,47.8,.23,23.25-85.74,49.38-83.01-47.75-.56-26Z"/><path class="c" d="M34.53,420.65l83.26,50.4,85.82-49.17,.56,57.24-85.86,47.7-83.06-49.95-.71-56.23Z"/><path class="b" d="M66.73,179.99l96.23,4.91,46.72,85.39-12.09,19.86-98.89-3.38-45.24-84.4,13.26-22.37Z"/><path class="c" d="M66.79,179.9l44.05,86.78,98.84,3.6-29.77,48.9-98.1-4.87-44.12-86.29,29.1-48.11Z"/><path class="b" d="M.04,75.66L59.71,0l96.68,11.28,9.21,21.35-59.96,78.71L10.62,99.41,.04,75.66Z"/><path class="c" d="M0,75.56l96.27,14.26L156.39,11.28l22.66,52.57-60.72,77.21-95.91-13.92L0,75.56Z"/></svg>