<?xml version="1.0" encoding="UTF-8"?><svg id="a" xmlns="http://www.w3.org/2000/svg" viewBox="0 0 571.76 378.35"><defs><style>.b{fill:#fff;}.c{fill:#737373;}.d{fill:#161b22;}.e{fill:#0d1117;}.f{fill:#425da1;}.g{fill:#4870ff;}</style></defs><path class="b" d="M405.18,155.48l-66.64-35.85-.99,37.23,.32,37.23,67.31-38.61Z"/><path class="d" d="M106.58,205.33c18.29-38.93,58.27-124.03,107.27-117.65,41.32,5.38,42.98,69.83,90.18,83.6,58.45,17.05,90.12-71.83,164.11-61.83,37.88,5.12,81.25,35.4,89.97,70.5,22.75,91.52-184.27,238.91-262.38,187.97-36.26-23.64-25.72-77.62-67.26-98.18-55.15-27.3-120.44,44.73-141.39,23.12-14.55-15.02,6.75-60.36,19.51-87.52Z"/><path class="b" d="M399.56,149.94l-60.24-32.4-61.16,32.34,60.56,34.96,60.84-34.9Z"/><path class="b" d="M278.16,187.73l60.56,34.96,3.79,7.33v2.97l-3.52,16.66-60.56-34.96-.28-26.95Z"/><path class="c" d="M338.63,222.72l.23,27.15,60.47-34.91-.23-27.38-60.47,35.14Z"/><path class="f" d="M391.79,75.18c-2.09-.78-.32-29.31,14.6-34.32,5.74-1.92,13.86-.51,17.64,4.95,5.03,7.26,.68,19.24-5.64,22.07-6.15,2.75-11.88-4.16-19.15-.83-5.52,2.53-6.49,8.48-7.46,8.12Z"/><path class="c" d="M339.32,117.54l-61.16,32.34,60.56,34.96"/><path class="e" d="M301.88,150.43l37.21-20.61,37.43,21.1,.1,10.26-37.85,21.8-36.64-21.08-.25-11.48Z"/><path class="g" d="M301.88,150.38l36.75,22.25,37.89-21.71,.25,25.27-37.9,21.06-36.67-22.05-.32-24.82Z"/><path class="b" d="M278.16,149.87l60.56,34.96,60.84-34.96v26.96l-60.56,34.96-60.56-34.96-.28-26.95Z"/><path class="c" d="M338.63,184.84l.09,27.27,60.84-35.26v-26.93l-60.93,34.91Z"/><path class="f" d="M257.61,199.71c-1.64-2.32-36.21,9.15-37.52,29.15-.5,7.7,3.89,17.24,11.84,20.12,10.58,3.83,23.92-5.42,25.35-14.12,1.39-8.47-9-13.28-7.25-23.32,1.32-7.62,8.34-10.75,7.58-11.83Z"/><path class="f" d="M379.42,212.3c2.33-12.55,34.28-20.9,59.95-11.15,13.2,5.02,35.29,18.83,35.64,36.96,.49,25.68-42.85,49.02-63.46,37.51-10.86-6.06-6.22-16.67-28.1-52.27-2.68-4.36-4.71-7.39-4.03-11.06Z"/><path class="f" d="M263.67,21.31c-19.17-8.64-50.83,7.28-52.4,27.75-1.34,17.51,19.5,36.11,31.91,33.49,8.86-1.87,11.14-14.06,18.55-13.6,8.69,.54,11.93,17.73,14.79,17.13,4.79-1,13.23-53.02-12.84-64.77Z"/><path class="e" d="M316.09,79.46l42.48,2.17,20.63,37.69-5.34,8.77-43.65-1.49-19.97-37.26,5.85-9.87Z"/><path class="g" d="M316.12,79.42l19.45,38.31,43.63,1.59-13.14,21.58-43.31-2.15-19.48-38.09,12.85-21.24Z"/><path class="e" d="M286.65,33.4L312.99,0l42.68,4.98,4.06,9.42-26.47,34.75-41.95-5.26-4.67-10.49Z"/><path class="g" d="M286.64,33.36l42.5,6.3,26.54-34.67,10,23.21-26.81,34.08-42.34-6.15-9.89-22.77Z"/><rect class="f" x="63.69" y="70.41" width="124.59" height="94.16" rx="8.18" ry="8.18"/><path class="e" d="M71.88,61.09h108.22c4.52,0,8.18,3.67,8.18,8.18v11.77H63.69v-11.77c0-4.52,3.67-8.18,8.18-8.18Z"/><rect class="b" x="41.28" y="92.38" width="65.8" height="10.39" rx="5.19" ry="5.19"/><rect class="b" x="113.66" y="92.38" width="37.31" height="10.39" rx="5.19" ry="5.19"/><rect class="b" x="30.97" y="109.29" width="55.43" height="10.39" rx="5.19" ry="5.19"/><rect class="d" x="92.35" y="109.29" width="25.94" height="10.39" rx="5.19" ry="5.19"/><rect class="d" x="124.24" y="109.29" width="25.94" height="10.39" rx="5.19" ry="5.19"/><rect class="b" x="38.52" y="126.2" width="44.06" height="10.39" rx="5.19" ry="5.19"/><rect class="b" x="12.97" y="143.12" width="78.47" height="10.39" rx="5.19" ry="5.19"/><rect class="d" x="97.39" y="143.12" width="25.94" height="10.39" rx="5.19" ry="5.19"/><rect class="b" x="155.94" y="109.29" width="25.94" height="10.39" rx="5.19" ry="5.19"/><circle class="g" cx="73.93" cy="71.07" r="5.16"/><circle class="g" cx="87.53" cy="71.07" r="5.16"/><circle class="g" cx="101.08" cy="71.07" r="5.16"/><rect class="b" x="0" y="109.13" width="25.94" height="10.39" rx="5.19" ry="5.19"/><rect class="b" x="537.18" y="167.84" width="34.58" height="6.54" rx="3.27" ry="3.27"/><rect class="b" x="497.12" y="167.84" width="34.58" height="6.54" rx="3.27" ry="3.27"/><rect class="b" x="467.46" y="167.84" width="24.04" height="6.54" rx="3.27" ry="3.27"/><rect class="b" x="197.09" y="50.14" width="24.04" height="6.54" rx="3.27" ry="3.27"/><rect class="b" x="226.84" y="50.14" width="24.04" height="6.54" rx="3.27" ry="3.27"/><rect class="b" x="79.09" y="204.32" width="95.01" height="15.6" rx="7.8" ry="7.8"/><rect class="b" x="454.28" y="108.82" width="85.44" height="15.6" rx="7.8" ry="7.8"/><rect class="b" x="401.41" y="302.21" width="138.31" height="15.6" rx="7.8" ry="7.8"/><rect class="b" x="8.77" y="204.32" width="57.22" height="15.6" rx="7.8" ry="7.8"/><rect class="b" x="192.35" y="284.45" width="24.04" height="6.54" rx="3.27" ry="3.27"/><rect class="b" x="222.09" y="284.45" width="46.55" height="6.54" rx="3.27" ry="3.27"/></svg>