<?xml version="1.0" encoding="UTF-8"?><svg id="a" xmlns="http://www.w3.org/2000/svg" viewBox="0 0 582.81 495.28"><defs><style>.b{fill:#fff;}.c{fill:#737373;}.d{fill:#161b22;}.e{fill:#0d1117;}.f{fill:#425da1;}.g{fill:#4870ff;}</style></defs><path class="b" d="M391.27,229.7l-79.42-42.72-1.18,44.37,.39,44.37,80.21-46.01Z"/><path class="d" d="M35.43,289.1c21.8-46.4,69.44-147.81,127.83-140.21,49.24,6.41,51.22,83.22,107.46,99.63,69.65,20.32,107.39-85.6,195.56-73.68,45.14,6.1,96.82,42.18,107.22,84.01,27.11,109.06-219.6,284.7-312.68,224-43.21-28.18-30.65-92.5-80.15-117.01-65.73-32.54-143.53,53.3-168.49,27.55-17.34-17.9,8.04-71.93,23.25-104.29Z"/><path class="b" d="M384.57,223.09l-71.78-38.62-72.88,38.54,72.16,41.66,72.5-41.59Z"/><path class="b" d="M239.9,268.13l72.16,41.66,4.52,8.73v3.54l-4.19,19.85-72.16-41.66-.33-32.12Z"/><path class="c" d="M311.96,309.83l.27,32.36,72.06-41.6-.27-32.63-72.06,41.88Z"/><path class="f" d="M336.16,242.39c-1.97-1.51,28.37-69.11,60.95-64.54,24.6,3.45,40.26,46.64,34.06,51.99-5.54,4.78-25.15-23.58-52.59-20.32-26.66,3.17-41.09,33.89-42.43,32.87Z"/><path class="f" d="M375.32,134c-2.49-.93-.38-34.93,17.4-40.89,6.84-2.29,16.52-.6,21.02,5.9,5.99,8.66,.81,22.93-6.72,26.3-7.32,3.28-14.16-4.96-22.82-.99-6.58,3.02-7.73,10.11-8.89,9.68Z"/><path class="c" d="M312.79,184.47l-72.88,38.54,72.16,41.66"/><path class="e" d="M268.17,223.67l44.34-24.56,44.6,25.15,.12,12.23-45.1,25.98-43.67-25.12-.3-13.68Z"/><path class="g" d="M268.17,223.62l43.8,26.51,45.15-25.87,.3,30.11-45.17,25.09-43.69-26.28-.38-29.58Z"/><path class="b" d="M239.9,223.01l72.16,41.66,72.5-41.67v32.12l-72.17,41.66-72.16-41.66-.33-32.12Z"/><path class="c" d="M311.96,264.69l.1,32.5,72.5-42.02v-32.09l-72.6,41.6Z"/><path class="f" d="M215.41,282.4c-1.95-2.76-43.16,10.9-44.71,34.74-.6,9.18,4.63,20.55,14.11,23.98,12.61,4.57,28.51-6.46,30.21-16.83,1.66-10.09-10.72-15.83-8.64-27.79,1.58-9.08,9.94-12.81,9.03-14.1Z"/><path class="b" d="M357.36,265.46c2.28-12.24,33.44-20.39,58.48-10.87,12.88,4.89,34.42,18.37,34.76,36.06,.48,25.05-41.8,47.82-61.9,36.6-10.59-5.91-6.07-16.26-27.41-50.99-2.61-4.25-4.59-7.21-3.93-10.79Z"/><path class="f" d="M213.57,2.86c-22.84-10.29-60.57,8.68-62.45,33.07-1.6,20.86,23.23,43.03,38.03,39.91,10.56-2.23,13.28-16.76,22.1-16.21,10.35,.65,14.22,21.13,17.62,20.42,5.71-1.19,15.76-63.19-15.3-77.19Z"/><path class="e" d="M285.11,139.1l50.62,2.58,24.58,44.92-6.36,10.45-52.02-1.78-23.8-44.4,6.98-11.77Z"/><path class="g" d="M285.14,139.05l23.17,45.65,52,1.89-15.66,25.72-51.61-2.56-23.21-45.4,15.31-25.31Z"/><path class="e" d="M250.02,84.21l31.39-39.8,50.86,5.93,4.84,11.23-31.54,41.41-49.99-6.27-5.56-12.5Z"/><path class="g" d="M250,84.16l50.65,7.5,31.62-41.32,11.92,27.65-31.94,40.62-50.46-7.32-11.79-27.13Z"/><rect class="f" x="75.9" y="137.34" width="148.47" height="112.21" rx="8.18" ry="8.18"/><path class="e" d="M84.09,126.24H216.19c4.52,0,8.18,3.67,8.18,8.18v15.59H75.9v-15.59c0-4.52,3.67-8.18,8.18-8.18Z"/><rect class="b" x="42.05" y="163.52" width="30.91" height="12.38" rx="6.19" ry="6.19"/><rect class="d" x="81.95" y="163.52" width="44.46" height="12.38" rx="6.19" ry="6.19"/><rect class="b" x="135.45" y="163.52" width="44.46" height="12.38" rx="6.19" ry="6.19"/><rect class="b" x="36.91" y="183.68" width="66.05" height="12.38" rx="6.19" ry="6.19"/><rect class="b" x="110.06" y="183.68" width="30.91" height="12.38" rx="6.19" ry="6.19"/><rect class="d" x="148.06" y="183.68" width="30.91" height="12.38" rx="6.19" ry="6.19"/><rect class="b" x="45.91" y="203.83" width="52.5" height="12.38" rx="6.19" ry="6.19"/><rect class="b" x="15.45" y="223.99" width="93.51" height="12.38" rx="6.19" ry="6.19"/><rect class="d" x="116.06" y="223.99" width="30.91" height="12.38" rx="6.19" ry="6.19"/><rect class="b" x="185.84" y="183.68" width="30.91" height="12.38" rx="6.19" ry="6.19"/><circle class="b" cx="88.11" cy="138.13" r="6.14"/><circle class="b" cx="104.32" cy="138.13" r="6.14"/><circle class="g" cx="120.46" cy="138.13" r="6.14"/><rect class="b" x="0" y="183.48" width="30.91" height="12.38" rx="6.19" ry="6.19"/><rect class="b" x="541.6" y="244.42" width="41.21" height="7.79" rx="3.9" ry="3.9"/><rect class="b" x="493.86" y="244.42" width="41.21" height="7.79" rx="3.9" ry="3.9"/><rect class="b" x="458.51" y="244.42" width="28.65" height="7.79" rx="3.9" ry="3.9"/><rect class="b" x="143.29" y="104.16" width="28.65" height="7.79" rx="3.9" ry="3.9"/><rect class="b" x="178.74" y="104.16" width="28.65" height="7.79" rx="3.9" ry="3.9"/><rect class="b" x="9.73" y="287.89" width="68.33" height="18.59" rx="9.3" ry="9.3"/><rect class="b" x="449.78" y="174.09" width="101.82" height="18.59" rx="9.3" ry="9.3"/><rect class="b" x="386.78" y="404.55" width="164.82" height="18.59" rx="9.3" ry="9.3"/></svg>