<?xml version="1.0" encoding="UTF-8" standalone="no"?><!-- Generator: Gravit.io --><svg xmlns="http://www.w3.org/2000/svg" xmlns:xlink="http://www.w3.org/1999/xlink" style="isolation:isolate" viewBox="0 0 600 600" width="600pt" height="600pt"><defs><clipPath id="_clipPath_Z1qcXNKbSe2wT2jYEl3WEpGIjcAqls8J"><rect width="600" height="600"/></clipPath></defs><g clip-path="url(#_clipPath_Z1qcXNKbSe2wT2jYEl3WEpGIjcAqls8J)"><g><g><g/></g><g><g/></g><g><g/></g><g><g/></g><g/></g><g/><g><g><path d=" M 34.237 156.749 L 184.543 243.529 L 299.619 309.967 L 565 156.749 L 300.222 5 L 34.237 156.749 Z " fill="rgb(181,181,181)"/><path d=" M 300.222 5 L 300.222 97.375 L 119.6 206.708 L 34.237 156.736 L 300.222 5 Z " fill="rgb(115,115,115)"/><path d=" M 227.749 103.57 L 299.702 62.027 L 371.656 103.57 L 299.702 156.873 L 227.749 103.57 Z " fill="rgb(30,41,59)"/><path d=" M 229.358 105.445 L 299.919 144.896 L 370.48 103.625 L 370.48 184.459 L 305.799 224.021 L 229.358 151.827 L 229.358 105.445 Z " fill="rgb(30,41,59)"/><path d=" M 382.663 193.005 L 299.705 240.903 L 216.748 193.005 L 216.748 97.22 L 299.705 49.323 L 382.663 97.22 L 382.663 193.005 Z  M 226.993 103.132 M 228.499 104.003 M 360.656 180.311 L 299.705 215.484 L 238.745 180.311 L 238.745 109.925 L 299.705 74.732 L 360.656 109.925 L 360.656 180.311 Z " fill-rule="evenodd" fill="rgb(115,115,115)"/><path d=" M 124.692 163.698 L 196.43 203.15 L 266.899 162.512 L 265.089 245.064 L 205.838 284.626 L 123.516 219.192 L 124.692 163.698 Z " fill="rgb(30,41,59)"/><path d=" M 124.692 164.774 L 196.646 120.517 L 268.6 162.059 L 196.646 214.293 L 124.692 164.774 Z " fill="rgb(30,41,59)"/><path d=" M 279.604 251.507 L 196.636 299.394 L 113.689 251.507 L 113.689 155.701 L 196.636 107.814 L 279.604 155.701 L 279.604 251.507 Z  M 123.934 161.623 M 125.451 162.504 M 257.596 238.792 L 196.646 273.985 L 135.696 238.792 L 135.696 168.416 L 196.646 133.223 L 257.596 168.416 L 257.596 238.792 Z " fill-rule="evenodd" fill="rgb(115,115,115)"/><path d=" M 331.238 162.28 L 403.192 120.738 L 477.284 166.557 L 403.192 211.307 L 331.238 162.28 Z " fill="rgb(30,41,59)"/><path d=" M 330.496 163.296 L 402.233 202.747 L 476.322 160.3 L 476.322 244.662 L 411.641 284.224 L 329.32 218.79 L 330.496 163.296 Z " fill="rgb(30,41,59)"/><path d=" M 486.152 251.712 L 403.195 299.609 L 320.237 251.712 L 320.237 155.927 L 403.195 108.04 L 486.152 155.927 L 486.152 251.712 Z  M 330.483 161.838 M 331.989 162.709 M 464.145 239.018 L 403.195 274.211 L 342.234 239.018 L 342.234 168.631 L 403.195 133.448 L 464.145 168.631 L 464.145 239.018 Z " fill-rule="evenodd" fill="rgb(115,115,115)"/><path d=" M 229.358 223.363 L 299.705 236 L 370.48 221.544 L 370.48 302.377 L 305.799 341.94 L 229.358 269.745 L 229.358 223.363 Z " fill="rgb(30,41,59)"/><path d=" M 227.006 221.946 L 298.96 180.403 L 370.914 221.946 L 305.3 259.828 L 298.96 263.488 L 227.006 221.946 Z " fill="rgb(30,41,59)"/><path d=" M 381.915 311.381 L 298.957 359.279 L 216 311.381 L 216 215.596 L 298.957 167.689 L 381.915 215.596 L 381.915 311.381 Z  M 371.669 221.518 M 370.153 222.389 M 359.908 298.677 L 298.957 333.87 L 238.007 298.677 L 238.007 228.301 L 298.957 193.108 L 359.908 228.301 L 359.908 298.677 Z " fill-rule="evenodd" fill="rgb(115,115,115)"/><path d=" M 33 322.666 L 298.381 475.884 L 315 508 L 315 521 L 299.588 594.006 L 34.206 440.788 L 33 322.666 Z " fill="rgb(255,255,255)"/><path d=" M 33 156.749 L 298.381 309.967 L 565 156.736 L 565 157.031 L 564.969 274.872 L 299.588 428.09 L 34.206 274.872 L 33 156.749 Z " fill="rgb(255,255,255)"/></g></g><path d=" M 298 476 L 299 595 L 564 442 L 563 322 L 298 476 Z " fill="rgb(255,255,255)"/><path d=" M 298 310 L 300 428 L 565 275 L 565 157 L 298 310 Z " fill="rgb(255,255,255)"/></g></svg>