<?xml version="1.0" encoding="utf-8"?>
<!-- Generator: Adobe Illustrator 26.2.1, SVG Export Plug-In . SVG Version: 6.00 Build 0)  -->
<svg version="1.1" id="Layer_1" xmlns="http://www.w3.org/2000/svg" xmlns:xlink="http://www.w3.org/1999/xlink" x="0px" y="0px"
	 viewBox="0 0 512 512" style="enable-background:new 0 0 512 512;" xml:space="preserve">
<style type="text/css">
	.st0{fill:#3A4454;}
</style>
<g>
	<g>
		<path class="st0" d="M503.8,21.8H8.2C3.7,21.8,0,25.4,0,30V482c0,4.5,3.7,8.2,8.2,8.2h495.7c4.5,0,8.2-3.7,8.2-8.2V30
			C512,25.4,508.3,21.8,503.8,21.8z M16.3,38.1H414v49H16.3V38.1z M495.7,473.9H16.3V103.5h479.3V473.9z M495.7,87.1h-65.4v-49h65.4
			V87.1z"/>
	</g>
</g>
<g>
	<g>
		<path class="st0" d="M471.1,119.8H40.9c-4.5,0-8.2,3.7-8.2,8.2v256c0,4.5,3.7,8.2,8.2,8.2s8.2-3.7,8.2-8.2V136.2h414v305H49v-24.5
			c0-4.5-3.7-8.2-8.2-8.2s-8.2,3.7-8.2,8.2v32.7c0,4.5,3.7,8.2,8.2,8.2h430.3c4.5,0,8.2-3.7,8.2-8.2V128
			C479.3,123.5,475.7,119.8,471.1,119.8z"/>
	</g>
</g>
<g>
	<g>
		<circle class="st0" cx="463" cy="62.6" r="8.2"/>
	</g>
</g>
<g>
	<g>
		<path class="st0" d="M256,173.2c-24.8,0-48.4,7.7-68.3,22.3c-3.6,2.7-4.4,7.8-1.8,11.4c2.7,3.6,7.8,4.4,11.4,1.8
			c17.1-12.5,37.3-19.2,58.6-19.2c54.7,0,99.1,44.5,99.1,99.1s-44.5,99.1-99.1,99.1s-99.1-44.5-99.1-99.1c0-21.3,6.6-41.5,19.2-58.6
			c2.7-3.6,1.9-8.8-1.8-11.4c-3.6-2.7-8.8-1.9-11.4,1.8c-14.6,19.9-22.3,43.5-22.3,68.3c0,63.7,51.8,115.5,115.5,115.5
			c63.7,0,115.5-51.8,115.5-115.5S319.7,173.2,256,173.2z"/>
	</g>
</g>
<g>
	<g>
		<path class="st0" d="M267.6,288.7l39.3-39.3c3.2-3.2,3.2-8.4,0-11.6c-3.2-3.2-8.4-3.2-11.6,0L256,277.1l-39.3-39.3
			c-3.2-3.2-8.4-3.2-11.6,0c-3.2,3.2-3.2,8.4,0,11.6l39.3,39.3L205.2,328c-3.2,3.2-3.2,8.4,0,11.6c1.6,1.6,3.7,2.4,5.8,2.4
			c2.1,0,4.2-0.8,5.8-2.4l39.3-39.3l39.3,39.3c1.6,1.6,3.7,2.4,5.8,2.4c2.1,0,4.2-0.8,5.8-2.4c3.2-3.2,3.2-8.4,0-11.6L267.6,288.7z"
			/>
	</g>
</g>
</svg>
