<?xml version="1.0" encoding="UTF-8"?><svg id="a" xmlns="http://www.w3.org/2000/svg" xmlns:xlink="http://www.w3.org/1999/xlink" viewBox="0 0 600 600"><defs><style>.c{fill:none;}.d{fill:#fff;}.e,.f{fill:#737373;}.g{fill:#0d1117;}.h{fill:#5a86ff;}.f{fill-rule:evenodd;}.i{clip-path:url(#b);}</style><clipPath id="b"><rect class="c" width="600" height="600"/></clipPath></defs><g class="i"><g><path d="M53.14,167.77l138.44,79.93,105.99,61.19,244.43-141.12L298.12,28,53.14,167.77Z"/><path class="e" d="M298.12,28V113.08l-166.36,100.7-78.62-46.03L298.12,28Z"/><path class="f" d="M279.14,255.05l-76.42,44.11-76.4-44.11v-88.24l76.4-44.11,76.42,44.11v88.24Zm-20.27-11.71l-56.14,32.41-51.13-98.84,51.13-30.81,56.14,32.41v64.82Z"/><path class="g" d="M232.86,229.12l64.99,36.34,64.99-38.01v74.45l-59.58,36.44-70.41-66.49v-42.72Z"/><path class="g" d="M230.69,227.82l66.27-38.26,66.27,38.26-66.27,38.26-66.27-38.26Z"/><path class="f" d="M373.37,310.19l-76.41,44.12-76.41-44.12v-88.22l76.41-44.12,76.41,44.12v88.22Zm-20.27-11.7l-56.14,32.42-56.14-32.42v-64.82l56.14-32.41,56.14,32.41v64.82Z"/><path d="M52,320.59l244.43,141.12,15.31,29.58v11.97l-14.2,67.24L53.11,429.38l-1.11-108.8Z"/><path class="e" d="M296.08,461.82l.92,109.61,244.08-140.92-.92-110.53-244.08,141.84Z"/><path class="d" d="M147.73,164l150.19-83.18,151.08,85.18,.41,41.42-152.78,87.99-147.91-85.09-1-46.32Z"/><path class="h" d="M147.73,163.81l148.35,85.19,152.92-83,1,102-153,85-148-89-1.27-100.19Z"/><path d="M52,167.77l244.43,141.12,245.57-141.13v.27l-.03,108.54-244.43,141.12L53.11,276.57l-1.11-108.8Z"/><path class="e" d="M296.08,308.92l.35,110.08,245.57-142.32v-108.68l-245.92,140.92Z"/></g></g></svg>