<?xml version="1.0" encoding="utf-8"?>
<!-- Generator: Adobe Illustrator 26.2.1, SVG Export Plug-In . SVG Version: 6.00 Build 0)  -->
<svg version="1.1" id="Ebene_1" xmlns="http://www.w3.org/2000/svg" xmlns:xlink="http://www.w3.org/1999/xlink" x="0px" y="0px"
	 viewBox="0 0 595.3 595.3" style="enable-background:new 0 0 595.3 595.3;" xml:space="preserve">
<style type="text/css">
	.st0{fill:#FFFFFF;stroke:#FFFFFF;stroke-width:29;stroke-miterlimit:10;}
	.st1{fill:#040405;}
</style>
<polygon class="st0" points="45.4,161.8 298.8,17.9 549.9,162 548,432.3 297.6,577.4 46.5,431.1 "/>
<path class="st1" d="M298.8,17.9L45.4,161.8l1.1,112l250.5,145.6l252.8-145.5V162L298.8,17.9z M450.9,218.7l-154.2,88.5l-152-87.9
	l-0.8-61.5l154.6-85.5l152,85.6L450.9,218.7z"/>
<polygon class="st1" points="45.4,317.1 296.7,464.5 548,318.5 548,432.3 297.6,577.4 46.5,431.1 "/>
<polygon class="st1" points="297.4,262.1 136.3,171.8 151.6,143.7 296.7,223.8 442.9,143.9 458.1,172 "/>
</svg>
