<?xml version="1.0" encoding="utf-8"?>
<!-- Generator: Adobe Illustrator 26.1.0, SVG Export Plug-In . SVG Version: 6.00 Build 0)  -->
<svg version="1.1" id="Ebene_1" xmlns="http://www.w3.org/2000/svg" xmlns:xlink="http://www.w3.org/1999/xlink" x="0px" y="0px"
	 viewBox="0 0 600 600" style="enable-background:new 0 0 600 600;" xml:space="preserve">
<style type="text/css">
	.st0{clip-path:url(#SVGID_00000153704573757768280380000018063543242072529290_);}
	.st1{fill:#0D1117;}
	.st2{fill:#FFFFFF;}
	.st3{fill:#737373;}
	.st4{fill-rule:evenodd;clip-rule:evenodd;fill:#737373;}
	.st5{fill:#5A86FF;}
</style>
<g>
	<defs>
		<rect id="SVGID_1_" width="600" height="600"/>
	</defs>
	<clipPath id="SVGID_00000033353312987141519560000010030772886853911427_">
		<use xlink:href="#SVGID_1_"  style="overflow:visible;"/>
	</clipPath>
	<g style="clip-path:url(#SVGID_00000033353312987141519560000010030772886853911427_);">
		<rect class="st1" width="597" height="600"/>
		<g>
			<path class="st2" d="M53.1,167.8l138.4,79.9l106,61.2L542,167.8L298.1,28L53.1,167.8z"/>
			<path class="st3" d="M298.1,28v85.1L131.8,213.8l-78.6-46L298.1,28z"/>
			<path class="st4" d="M279.1,255l-76.4,44.1L126.3,255v-88.2l76.4-44.1l76.4,44.1V255z M258.9,243.3l-56.1,32.4l-51.1-98.8
				l51.1-30.8l56.1,32.4V243.3z"/>
			<path class="st1" d="M232.9,229.1l65,36.3l65-38v74.5l-59.6,36.4l-70.4-66.5V229.1z"/>
			<path class="st1" d="M230.7,227.8l66.3-38.3l66.3,38.3L297,266.1L230.7,227.8z"/>
			<path class="st4" d="M373.4,310.2L297,354.3l-76.4-44.1V222l76.4-44.1l76.4,44.1V310.2z M353.1,298.5L297,330.9l-56.1-32.4v-64.8
				l56.1-32.4l56.1,32.4V298.5z"/>
			<path class="st2" d="M52,320.6l244.4,141.1l15.3,29.6v12l-14.2,67.2L53.1,429.4L52,320.6z"/>
			<path class="st3" d="M296.1,461.8l0.9,109.6l244.1-140.9L540.2,320L296.1,461.8z"/>
			<path class="st1" d="M147.7,164l150.2-83.2L449,166l0.4,41.4l-152.8,88l-147.9-85.1L147.7,164z"/>
			<path class="st5" d="M147.7,163.8L296.1,249L449,166l1,102l-153,85l-148-89L147.7,163.8z"/>
			<path class="st2" d="M52,167.8l244.4,141.1L542,167.8v0.3l0,108.5L297.5,417.7L53.1,276.6L52,167.8z"/>
			<path class="st3" d="M296.1,308.9l0.4,110.1L542,276.7V168L296.1,308.9z"/>
		</g>
	</g>
</g>
</svg>
