<?xml version="1.0" encoding="UTF-8" standalone="no"?><!-- Generator: Gravit.io --><svg xmlns="http://www.w3.org/2000/svg" xmlns:xlink="http://www.w3.org/1999/xlink" style="isolation:isolate" viewBox="0 0 600 600" width="600pt" height="600pt"><defs><clipPath id="_clipPath_pOJzwBMRAgH4coxttOuQrTxJrD9STVJW"><rect width="600" height="600"/></clipPath></defs><g clip-path="url(#_clipPath_pOJzwBMRAgH4coxttOuQrTxJrD9STVJW)"><g style="isolation:isolate"><path d=" M 73 180.752 L 73 165.205 L 300 34.641 L 525 164.205 L 524.759 181.273 L 300 311.769 L 73 180.752 Z  M 88 173.21 L 300 50.81 L 512 173.21 L 300 295.6 L 88 173.21 Z " fill-rule="evenodd" fill="rgb(255,255,255)"/></g><path d=" M 287 294 L 297 301 L 316 292 L 307 316 L 308 337 L 308 373 L 300 384.145 L 291 367.598 L 294 319 L 287 294 Z " fill="rgb(255,255,255)"/><path d=" M 300 387.145 L 300 294.769 L 525 165.205 L 525 257.581 L 300 387.145 Z  M 314 362.9 L 314 302.85 L 511 189.45 L 511 249.5 L 314 362.9 Z " fill-rule="evenodd" fill="rgb(255,255,255)"/><path d=" M 73 256.581 L 73 164.205 L 300 294.769 L 300 387.145 L 73 256.581 Z  M 87 248.5 L 87 188.45 L 286 302.85 L 286 362.9 L 87 248.5 Z " fill-rule="evenodd" fill="rgb(255,255,255)"/><path d=" M 300 450.333 L 313 459 L 308 487 L 311 520.068 L 300 534.615 L 291 523.598 L 292 474 L 300 450.333 Z " fill="rgb(255,255,255)"/><path d=" M 300 537.145 L 300 444.769 L 525 315.205 L 525 407.581 L 300 537.145 Z  M 314 512.9 L 314 452.85 L 511 339.45 L 511 399.5 L 314 512.9 Z " fill-rule="evenodd" fill="rgb(255,255,255)"/><path d=" M 73 406.581 L 73 314.205 L 300 444.769 L 300 537.145 L 73 406.581 Z  M 87 398.5 L 87 338.45 L 286 452.85 L 286 512.9 L 87 398.5 Z " fill-rule="evenodd" fill="rgb(255,255,255)"/><path d=" M 153 222.4 L 153 176.12 L 300.01 92.87 L 448 177.14 L 448 222.44 L 299.97 308.87 L 153 222.4 Z  M 179 234.39 L 179 189.29 L 299.99 120.97 L 423 193.27 L 423 233.35 L 300.03 300.67 L 179 234.39 Z " fill-rule="evenodd" fill="rgb(255,255,255)"/></g></svg>