<?xml version="1.0" encoding="utf-8"?>
<!-- Generator: Adobe Illustrator 26.2.1, SVG Export Plug-In . SVG Version: 6.00 Build 0)  -->
<svg version="1.1" id="a" xmlns="http://www.w3.org/2000/svg" xmlns:xlink="http://www.w3.org/1999/xlink" x="0px" y="0px" viewBox="0 0 571.8 378.4" style="enable-background:new 0 0 571.8 378.4;" xml:space="preserve">
    <style type="text/css">
        .st0{fill:#FFFFFF;}
	.st1{fill:#161B22;}
	.st2{fill:#737373;}
	.st3{fill:#4870FF;}
	.st4{fill:#0D1117;}

    
    .floating-cube {
        animation: floatAnim 5s ease-in-out infinite;

      }
      .floating-cube2 {
        animation: floatAnim2 5s ease-in-out infinite;
        <!-- animation: rotating 30s linear infinite; -->
        }

      .floating-cube3 {
        animation: floatAnim3 5s ease-in-out infinite;
      }

      .floating-window {
        animation: floatAnimx 5s ease-in-out infinite;
      }

      @keyframes rotating {
  from {
    -ms-transform: rotate(20deg);
    -moz-transform: rotate(20deg);
    -webkit-transform: rotate(20deg);
    -o-transform: rotate(20deg);
    transform: rotate(20deg);
  }
  to {
    -ms-transform: rotate(360deg);
    -moz-transform: rotate(360deg);
    -webkit-transform: rotate(360deg);
    -o-transform: rotate(360deg);
    transform: rotate(360deg);
  }
}

      @keyframes tiltImage {
  0% {
    transform: skewY(5deg);
  }
  50% {
    transform: skewY(-5deg);
  }
  100% {
    transform: skewY(5deg);
  }
}


      @keyframes floatAnim {
        0% {
          transform: translate(0px,0px);
          -ms-transform: rotate(0deg);
    -moz-transform: rotate(0deg);
    -webkit-transform: rotate(0deg);
    -o-transform: rotate(0deg);
    transform: rotate(0deg);
        }
        50% {
          transform: translate(0px,15px);
             -ms-transform: rotate(5deg);
    -moz-transform: rotate(5deg);
    -webkit-transform: rotate(5deg);
    -o-transform: rotate(5deg);
    transform: rotate(5deg);
           
        }
        100% {
          transform: translate(0px,0px);
          -ms-transform: rotate(0deg);
    -moz-transform: rotate(0deg);
    -webkit-transform: rotate(0deg);
    -o-transform: rotate(0deg);
    transform: rotate(0deg);
        }
      }

      @keyframes floatAnim2 {
        0% {
          transform: translate(10px,-10px);
        }
        40% {
          transform: translate(10px,0px);
        }
        100% {
          transform: translate(10px,-10px);
        }
      }

       @keyframes floatAnimx {
        0% {
          transform: translate(0px,0px);
        }
        40% {
          transform: translate(10px,0px);
        }
        100% {
          transform: translate(0px,0px);
        }
      }

      @keyframes floatAnim3 {
        0% {
          transform: translate(0px,-10px);
        }
        50% {
          transform: translate(0px,5px);
        }
        100% {
          transform: translate(0px,-10px);
        }
    </style>
    <path class="st0" d="M405.2,155.5l-66.6-35.8l-1,37.2l0.3,37.2L405.2,155.5z" />
    <path class="st1" d="M106.6,205.3c18.3-38.9,58.3-124,107.3-117.7c41.3,5.4,43,69.8,90.2,83.6c58.5,17.1,90.1-71.8,164.1-61.8
	c37.9,5.1,81.2,35.4,90,70.5c22.8,91.5-184.3,238.9-262.4,188c-36.3-23.6-25.7-77.6-67.3-98.2c-55.1-27.3-120.4,44.7-141.4,23.1
	C72.5,277.8,93.8,232.5,106.6,205.3L106.6,205.3z" />
    <path class="st2" d="M399.6,149.9l-60.2-32.4l-61.2,32.3l60.6,35L399.6,149.9z" />
    <path class="st0" d="M278.2,187.7l60.6,35l3.8,7.3v3l-3.5,16.7l-60.6-35L278.2,187.7L278.2,187.7z" />
    <path class="st0" d="M338.6,222.7l0.2,27.1l60.5-34.9l-0.2-27.4L338.6,222.7L338.6,222.7z" />
    <path class="st3" d="M391.8,75.2c-2.1-0.8-0.3-29.3,14.6-34.3c5.7-1.9,13.9-0.5,17.6,5c5,7.3,0.7,19.2-5.6,22.1
	c-6.1,2.8-11.9-4.2-19.1-0.8C393.7,69.6,392.8,75.5,391.8,75.2L391.8,75.2z" />
    <path class="st2" d="M339.3,117.5l-61.2,32.3l60.6,35" />
    <g id="cube3" class="floating-cube3">
        <path class="st4" d="M301.9,150.4l37.2-20.6l37.4,21.1l0.1,10.3L338.8,183l-36.6-21.1L301.9,150.4L301.9,150.4z" />
        <path class="st3" d="M301.9,150.4l36.8,22.2l37.9-21.7l0.2,25.3l-37.9,21.1l-36.7-22.1L301.9,150.4z" />
    </g>
    <path class="st0" d="M278.2,149.9l60.6,35l60.8-35v27l-60.6,35l-60.6-35L278.2,149.9L278.2,149.9z" />
    <path class="st0" d="M338.6,184.8l0.1,27.3l60.8-35.3v-26.9L338.6,184.8L338.6,184.8z" />
    <path class="st3" d="M257.6,199.7c-1.6-2.3-36.2,9.1-37.5,29.1c-0.5,7.7,3.9,17.2,11.8,20.1c10.6,3.8,23.9-5.4,25.3-14.1
	c1.4-8.5-9-13.3-7.2-23.3C251.3,203.9,258.4,200.8,257.6,199.7L257.6,199.7z" />
    <path class="st3" d="M379.4,212.3c2.3-12.6,34.3-20.9,60-11.1c13.2,5,35.3,18.8,35.6,37c0.5,25.7-42.9,49-63.5,37.5
	c-10.9-6.1-6.2-16.7-28.1-52.3C380.8,219,378.7,216,379.4,212.3L379.4,212.3z" />
    <path class="st3" d="M263.7,21.3c-19.2-8.6-50.8,7.3-52.4,27.7c-1.3,17.5,19.5,36.1,31.9,33.5c8.9-1.9,11.1-14.1,18.5-13.6
	c8.7,0.5,11.9,17.7,14.8,17.1C281.3,85.1,289.8,33.1,263.7,21.3L263.7,21.3z" />
    <g id="cube2" class="floating-cube2">
        <path class="st4" d="M316.1,79.5l42.5,2.2l20.6,37.7l-5.3,8.8l-43.6-1.5l-20-37.3L316.1,79.5L316.1,79.5z" />
        <path class="st3" d="M316.1,79.4l19.5,38.3l43.6,1.6l-13.1,21.6l-43.3-2.1l-19.5-38.1C303.3,100.7,316.1,79.4,316.1,79.4z" />
    </g>
    <g id="cube1" class="floating-cube">
        <path class="st4" d="M286.6,33.4L313,0l42.7,5l4.1,9.4l-26.5,34.8l-42-5.3L286.6,33.4L286.6,33.4z" />
        <path class="st3" d="M286.6,33.4l42.5,6.3L355.7,5l10,23.2l-26.8,34.1l-42.3-6.2L286.6,33.4z" />
    </g>
    <g id="window" class="floating-window">
        <path class="st3" d="M71.9,70.4h108.2c4.5,0,8.2,3.7,8.2,8.2v77.8c0,4.5-3.7,8.2-8.2,8.2H71.9c-4.5,0-8.2-3.7-8.2-8.2V78.6
		C63.7,74.1,67.4,70.4,71.9,70.4z" />
        <path class="st4" d="M71.9,61.1h108.2c4.5,0,8.2,3.7,8.2,8.2V81H63.7V69.3C63.7,64.8,67.4,61.1,71.9,61.1L71.9,61.1z" />
        <circle class="st3" cx="73.9" cy="71.1" r="5.2" />
        <circle class="st3" cx="87.5" cy="71.1" r="5.2" />
        <circle class="st3" cx="101.1" cy="71.1" r="5.2" />
    </g>
    <g id="window-code">
        <path class="st0" d="M46.5,92.4h55.4c2.9,0,5.2,2.3,5.2,5.2v0c0,2.9-2.3,5.2-5.2,5.2H46.5c-2.9,0-5.2-2.3-5.2-5.2v0
		C41.3,94.7,43.6,92.4,46.5,92.4z" />
        <path class="st0" d="M118.9,92.4h26.9c2.9,0,5.2,2.3,5.2,5.2v0c0,2.9-2.3,5.2-5.2,5.2h-26.9c-2.9,0-5.2-2.3-5.2-5.2v0
		C113.7,94.7,116,92.4,118.9,92.4z" />
        <path class="st0" d="M36.2,109.3h45c2.9,0,5.2,2.3,5.2,5.2v0c0,2.9-2.3,5.2-5.2,5.2h-45c-2.9,0-5.2-2.3-5.2-5.2v0
		C31,111.6,33.3,109.3,36.2,109.3z" />
        <path class="st1" d="M97.5,109.3h15.6c2.9,0,5.2,2.3,5.2,5.2v0c0,2.9-2.3,5.2-5.2,5.2H97.5c-2.9,0-5.2-2.3-5.2-5.2v0
		C92.3,111.6,94.7,109.3,97.5,109.3z" />
        <path class="st1" d="M129.4,109.3H145c2.9,0,5.2,2.3,5.2,5.2v0c0,2.9-2.3,5.2-5.2,5.2h-15.6c-2.9,0-5.2-2.3-5.2-5.2v0
		C124.2,111.6,126.6,109.3,129.4,109.3z" />
        <path class="st0" d="M43.7,126.2h33.7c2.9,0,5.2,2.3,5.2,5.2v0c0,2.9-2.3,5.2-5.2,5.2H43.7c-2.9,0-5.2-2.3-5.2-5.2v0
		C38.5,128.5,40.8,126.2,43.7,126.2z" />
        <path class="st0" d="M18.2,143.1h68.1c2.9,0,5.2,2.3,5.2,5.2v0c0,2.9-2.3,5.2-5.2,5.2H18.2c-2.9,0-5.2-2.3-5.2-5.2v0
		C13,145.4,15.3,143.1,18.2,143.1z" />
        <path class="st1" d="M102.6,143.1h15.6c2.9,0,5.2,2.3,5.2,5.2v0c0,2.9-2.3,5.2-5.2,5.2h-15.6c-2.9,0-5.2-2.3-5.2-5.2v0
		C97.4,145.4,99.7,143.1,102.6,143.1z" />
        <path class="st0" d="M161.1,109.3h15.6c2.9,0,5.2,2.3,5.2,5.2v0c0,2.9-2.3,5.2-5.2,5.2h-15.6c-2.9,0-5.2-2.3-5.2-5.2v0
		C155.9,111.6,158.3,109.3,161.1,109.3z" />
        <path class="st0" d="M5.2,109.1h15.6c2.9,0,5.2,2.3,5.2,5.2v0c0,2.9-2.3,5.2-5.2,5.2H5.2c-2.9,0-5.2-2.3-5.2-5.2v0
		C0,111.5,2.3,109.1,5.2,109.1z" />
    </g>
    <path class="st0" d="M540.5,167.8h28c1.8,0,3.3,1.5,3.3,3.3v0c0,1.8-1.5,3.3-3.3,3.3h-28c-1.8,0-3.3-1.5-3.3-3.3v0
	C537.2,169.3,538.6,167.8,540.5,167.8z" />
    <path class="st0" d="M500.4,167.8h28c1.8,0,3.3,1.5,3.3,3.3v0c0,1.8-1.5,3.3-3.3,3.3h-28c-1.8,0-3.3-1.5-3.3-3.3v0
	C497.1,169.3,498.6,167.8,500.4,167.8z" />
    <path class="st0" d="M470.7,167.8h17.5c1.8,0,3.3,1.5,3.3,3.3v0c0,1.8-1.5,3.3-3.3,3.3h-17.5c-1.8,0-3.3-1.5-3.3-3.3v0
	C467.5,169.3,468.9,167.8,470.7,167.8z" />
    <path class="st0" d="M200.4,50.1h17.5c1.8,0,3.3,1.5,3.3,3.3l0,0c0,1.8-1.5,3.3-3.3,3.3h-17.5c-1.8,0-3.3-1.5-3.3-3.3l0,0
	C197.1,51.6,198.6,50.1,200.4,50.1z" />
    <path class="st0" d="M230.1,50.1h17.5c1.8,0,3.3,1.5,3.3,3.3l0,0c0,1.8-1.5,3.3-3.3,3.3h-17.5c-1.8,0-3.3-1.5-3.3-3.3l0,0
	C226.8,51.6,228.3,50.1,230.1,50.1z" />
    <path class="st0" d="M86.9,204.3h79.4c4.3,0,7.8,3.5,7.8,7.8l0,0c0,4.3-3.5,7.8-7.8,7.8H86.9c-4.3,0-7.8-3.5-7.8-7.8l0,0
	C79.1,207.8,82.6,204.3,86.9,204.3z" />
    <path class="st0" d="M462.1,78.8h69.8c4.3,0,7.8,3.5,7.8,7.8v0c0,4.3-3.5,7.8-7.8,7.8h-69.8c-4.3,0-7.8-3.5-7.8-7.8v0
	C454.3,82.3,457.8,78.8,462.1,78.8z" />
    <path class="st0" d="M409.2,302.2h122.7c4.3,0,7.8,3.5,7.8,7.8v0c0,4.3-3.5,7.8-7.8,7.8H409.2c-4.3,0-7.8-3.5-7.8-7.8v0
	C401.4,305.7,404.9,302.2,409.2,302.2z" />
    <path class="st0" d="M16.6,204.3h41.6c4.3,0,7.8,3.5,7.8,7.8l0,0c0,4.3-3.5,7.8-7.8,7.8H16.6c-4.3,0-7.8-3.5-7.8-7.8l0,0
	C8.8,207.8,12.3,204.3,16.6,204.3z" />
    <path class="st0" d="M195.6,284.5h17.5c1.8,0,3.3,1.5,3.3,3.3v0c0,1.8-1.5,3.3-3.3,3.3h-17.5c-1.8,0-3.3-1.5-3.3-3.3v0
	C192.4,285.9,193.8,284.5,195.6,284.5z" />
    <path class="st0" d="M225.4,284.5h40c1.8,0,3.3,1.5,3.3,3.3v0c0,1.8-1.5,3.3-3.3,3.3h-40c-1.8,0-3.3-1.5-3.3-3.3v0
	C222.1,285.9,223.6,284.5,225.4,284.5z" />
</svg>