<?xml version="1.0" encoding="UTF-8" standalone="no"?><!-- Generator: Gravit.io --><svg xmlns="http://www.w3.org/2000/svg" xmlns:xlink="http://www.w3.org/1999/xlink" style="isolation:isolate" viewBox="0 0 600 600" width="600pt" height="600pt"><defs><clipPath id="_clipPath_PWAMzOCApFNYfpQPUg3Q5qRHvcRHg5Ds"><rect width="600" height="600"/></clipPath></defs><g clip-path="url(#_clipPath_PWAMzOCApFNYfpQPUg3Q5qRHvcRHg5Ds)"><rect x="0" y="0" width="597" height="600" transform="matrix(1,0,0,1,0,0)" fill="rgb(13,17,23)"/><g><g><g/></g><g><g/></g><g><g/></g><g><g/></g><g/></g><g/><g><g/></g><g><path d=" M 53.139 167.769 L 191.579 247.697 L 297.57 308.891 L 542 167.769 L 298.125 28 L 53.139 167.769 Z " fill="rgb(181,181,181)"/><path d=" M 298.125 28 L 298.125 113.082 L 131.763 213.784 L 53.139 167.757 L 298.125 28 Z " fill="rgb(115,115,115)"/><path d=" M 374.058 201.163 L 297.65 245.279 L 221.241 201.163 L 221.241 112.94 L 297.65 68.824 L 374.058 112.94 L 374.058 201.163 Z  M 230.678 118.385 M 232.065 119.187 M 353.788 189.471 L 297.65 221.867 L 241.502 189.471 L 241.502 124.641 L 297.65 92.226 L 353.788 124.641 L 353.788 189.471 Z " fill-rule="evenodd" fill="rgb(115,115,115)"/><path d=" M 279.135 255.046 L 202.717 299.152 L 126.319 255.046 L 126.319 166.804 L 202.717 122.697 L 279.135 166.804 L 279.135 255.046 Z  M 135.755 172.258 M 137.152 173.07 M 258.865 243.335 L 202.727 275.75 L 146.588 243.335 L 151.595 176.909 L 202.727 146.1 L 258.865 178.515 L 258.865 243.335 Z " fill-rule="evenodd" fill="rgb(115,115,115)"/><path d=" M 469.377 255.234 L 392.969 299.351 L 316.561 255.234 L 316.561 167.012 L 347.884 98.587 L 469.377 167.012 L 469.377 255.234 Z  M 325.997 172.456 M 327.384 173.259 M 449.107 243.542 L 392.969 275.957 L 336.821 243.542 L 336.821 178.713 L 392.969 146.308 L 449.107 178.713 L 449.107 243.542 Z " fill-rule="evenodd" fill="rgb(115,115,115)"/><path d=" M 232.856 229.124 L 297.847 265.461 L 362.837 227.448 L 362.837 301.9 L 303.262 338.339 L 232.856 271.844 L 232.856 229.124 Z " fill="rgb(13,17,23)"/><path d=" M 230.69 227.818 L 296.963 189.556 L 363.236 227.818 L 296.963 266.081 L 230.69 227.818 Z " fill="rgb(13,17,23)"/><path d=" M 373.369 310.193 L 296.961 354.309 L 220.553 310.193 L 220.553 221.97 L 296.961 177.845 L 373.369 221.97 L 373.369 310.193 Z  M 363.932 227.425 M 362.536 228.227 M 353.099 298.492 L 296.961 330.907 L 240.822 298.492 L 240.822 233.672 L 296.961 201.257 L 353.099 233.672 L 353.099 298.492 Z " fill-rule="evenodd" fill="rgb(115,115,115)"/><path d=" M 52 320.587 L 296.43 461.709 L 311.737 491.289 L 311.737 503.263 L 297.541 570.506 L 53.111 429.384 L 52 320.587 Z " fill="rgb(255,255,255)"/><path d=" M 52 167.769 L 296.43 308.891 L 542 167.757 L 542 168.029 L 541.972 276.566 L 297.541 417.688 L 53.111 276.566 L 52 167.769 Z " fill="rgb(255,255,255)"/><path d=" M 296.079 461.816 L 297 571.421 L 541.079 430.5 L 540.158 319.974 L 296.079 461.816 Z " fill="rgb(255,255,255)"/><path d=" M 296.079 308.921 L 297.921 417.605 L 542 276.684 L 542 168 L 296.079 308.921 Z " fill="rgb(255,255,255)"/><path d=" M 147.727 179.81 L 297.921 91.818 L 449.413 178.843 L 449.413 220.421 L 296.636 308.413 L 147.727 223.322 L 147.727 179.81 Z " fill="rgb(13,17,23)"/></g></g></svg>